<?xml version="1.0" standalone="no"?>
<!DOCTYPE svg PUBLIC "-//W3C//DTD SVG 20010904//EN"
 "http://www.w3.org/TR/2001/REC-SVG-20010904/DTD/svg10.dtd">
<svg version="1.0" xmlns="http://www.w3.org/2000/svg"
 width="700.000000pt" height="700.000000pt" viewBox="0 0 700.000000 700.000000"
 preserveAspectRatio="xMidYMid meet">
<metadata>
Created by potrace 1.11, written by Peter Selinger 2001-2013
</metadata>
<g transform="translate(0.000000,700.000000) scale(0.100000,-0.100000)"
fill="#000000" stroke="none">
<path d="M2142 5614 c-196 -97 -367 -524 -388 -969 -14 -282 55 -632 168 -860
120 -240 275 -336 414 -255 168 96 312 405 368 791 76 515 -122 1179 -388
1300 -57 26 -112 24 -174 -7z"/>
<path d="M4684 5621 c-218 -99 -404 -583 -404 -1053 0 -532 241 -1068 480
-1068 219 1 430 394 481 900 49 487 -143 1094 -383 1214 -62 31 -117 33 -174
7z"/>
<path d="M1569 2906 c-94 -33 -154 -99 -187 -206 -25 -81 -22 -295 6 -416 111
-475 476 -924 987 -1216 199 -114 492 -217 725 -257 252 -43 548 -43 800 0
380 64 771 245 1067 492 335 280 562 626 645 981 28 122 31 335 6 417 -26 83
-74 147 -137 182 -88 50 -163 49 -458 -7 -599 -112 -965 -148 -1523 -148 -556
0 -920 35 -1520 147 -248 47 -347 54 -411 31z m264 -401 c201 -61 690 -129
1122 -156 232 -14 858 -14 1090 0 434 28 855 85 1108 153 43 11 81 18 84 15
16 -17 -140 -202 -250 -295 -296 -251 -664 -397 -1142 -453 -142 -17 -548 -17
-690 0 -614 72 -1093 315 -1359 687 -20 28 -36 54 -36 58 0 9 21 7 73 -9z"/>
</g>
</svg>
